# This file uses centimeters as units for non-parametric coordinates.

v 0.152226 -0.247432 0.022887
v 0.105026 -0.257564 -0.167553
v -0.078490 -0.295792 -0.222817
v -0.002488 -0.319099 0.033265
v -0.058270 -0.344118 -0.105399
v 0.144655 -0.261464 -0.067048
v -0.040828 -0.294715 -0.220481
v 0.025490 -0.337830 -0.022318
v 0.001475 -0.352015 -0.098392
v 0.038129 -0.307622 0.037102
v -0.027365 -0.340752 -0.018320
v 0.152581 -0.254560 -0.014427
v -0.074051 -0.317358 -0.179703
v -0.023080 -0.330795 -0.171579
v 0.127875 -0.264526 -0.124380
v 0.126602 -0.266554 0.031750
v 0.066748 -0.274143 -0.189814
v 0.108111 -0.301134 -0.077105
v 0.089277 -0.300129 -0.139866
v 0.120373 -0.289246 -0.018183
v 0.237344 0.343336 0.084215
v 0.217418 0.322240 0.164832
v 0.166784 0.296918 0.229538
v -0.002766 0.263391 0.302447
v -0.117618 0.259889 0.267859
v -0.180396 0.261037 0.120379
v -0.212238 0.276806 -0.031675
v -0.237344 0.291534 -0.171949
v -0.228600 0.301151 -0.270114
v -0.160045 0.311421 -0.302447
v 0.023370 0.336315 -0.260709
v 0.117128 0.345763 -0.205943
v 0.207511 0.349912 -0.115549
v 0.232214 0.352015 -0.007614
vt 1.000000 0.037781
vt 1.000000 0.883828
vt 0.691231 0.039954
vt 0.691231 0.934653
vt 0.410591 0.039954
vt 0.382462 0.934653
vt 0.000000 0.037781
vt 0.160645 0.039954
vt 0.000000 0.883828
vt 0.160645 0.934653
vt 0.839355 0.039954
vt 1.000000 0.037781
vt 0.839355 0.934653
vt 1.000000 0.883828
vt 0.308769 0.039954
vt 0.589409 0.039954
vt 0.308769 0.934653
vt 0.617538 0.934653
vt 0.000000 0.037781
vt 0.000000 0.883828
vt 0.000000 0.934653
vt 0.000000 1.000000
vt 0.000000 0.934653
vt 0.000000 1.000000
vt 0.000000 0.934653
vt 0.808769 0.934653
vt 0.808769 0.039954
vt 1.000000 0.883828
vt 1.000000 0.037781
vt 0.000000 1.000000
vt 0.000000 0.934653
vt 0.000000 0.934653
vt 0.191231 0.039954
vt 0.191231 0.934653
vt 0.000000 0.037781
vt 0.000000 0.883828
vt 0.339355 0.039954
vt 0.339355 0.934653
vt 0.000000 0.037781
vt 0.000000 0.883828
vt 0.660645 0.039954
vt 0.660645 0.934653
vt 1.000000 0.883828
vt 1.000000 0.037781
vt 0.000000 0.934653
vt 0.000000 1.000000
vt 0.000000 0.934653
vt 0.000000 0.934653
vt 0.000000 1.000000
vt 0.000000 0.934653
vt 0.000000 1.000000
vt 0.000000 0.934653
vn 0.910621 -0.194992 0.364345
vn 0.868384 -0.258386 0.423256
vn 0.988082 -0.144400 0.053318
vn 0.982615 -0.173766 -0.065365
vn 0.981140 -0.123051 -0.149072
vn 0.964475 -0.164125 -0.207007
vn -0.807603 -0.245565 -0.536168
vn 0.052434 -0.115269 -0.991950
vn -0.750038 -0.300443 -0.589217
vn 0.233168 -0.146646 -0.961316
vn 0.151831 -0.390522 0.907987
vn -0.633378 -0.403580 0.660269
vn 0.144610 -0.455665 0.878326
vn -0.606632 -0.410099 0.681040
vn -0.912223 -0.303549 0.275150
vn -0.949692 -0.268566 0.161114
vn -0.863641 -0.350073 0.362730
vn -0.915381 -0.335272 0.222866
vn 0.329158 -0.925756 0.186095
vn 0.224281 -0.966126 -0.127664
vn -0.949826 -0.307614 0.056613
vn -0.965747 -0.256947 0.036201
vn 0.174849 -0.863899 -0.472341
vn 0.868095 -0.102874 -0.485621
vn 0.902646 -0.133903 -0.409023
vn 0.624409 -0.074269 -0.777559
vn 0.710388 -0.084218 -0.698754
vn 0.567015 -0.302507 0.766149
vn 0.330919 -0.406852 0.851449
vn 0.338590 -0.078913 -0.937619
vn 0.360296 -0.147813 -0.921053
vn 0.477046 -0.805287 -0.352050
vn 0.539576 -0.840382 -0.051155
vn 0.529459 -0.827973 0.184755
f 22/1/1 1/2/2 21/3/3
f 21/3/3 1/2/2 12/4/4
f 21/3/3 12/4/4 34/5/5
f 34/5/5 12/4/4 6/6/6
f 29/7/7 30/8/8 3/9/9
f 3/9/9 30/8/8 7/10/10
f 24/11/11 25/12/12 10/13/13
f 10/13/13 25/12/12 4/14/14
f 26/15/15 27/16/16 11/17/17
f 11/17/17 27/16/16 5/18/18
f 25/19/12 26/15/15 4/20/14
f 4/20/14 26/15/15 11/17/17
f 10/21/13 4/20/14 8/22/19
f 8/22/19 4/20/14 11/23/17
f 8/22/19 11/23/17 9/24/20
f 9/24/20 11/23/17 5/25/18
f 5/18/18 27/16/16 13/26/21
f 13/26/21 27/16/16 28/27/22
f 13/26/21 28/27/22 3/28/9
f 3/28/9 28/27/22 29/29/7
f 9/24/20 5/25/18 14/30/23
f 14/30/23 5/25/18 13/31/21
f 14/30/23 13/31/21 7/32/10
f 7/32/10 13/31/21 3/9/9
f 34/5/5 6/6/6 33/33/24
f 33/33/24 6/6/6 15/34/25
f 33/33/24 15/34/25 32/35/26
f 32/35/26 15/34/25 2/36/27
f 23/37/28 24/11/11 16/38/29
f 16/38/29 24/11/11 10/13/13
f 22/39/1 23/37/28 1/40/2
f 1/40/2 23/37/28 16/38/29
f 30/8/8 31/41/30 7/10/10
f 7/10/10 31/41/30 17/42/31
f 17/42/31 31/41/30 2/43/27
f 2/43/27 31/41/30 32/44/26
f 15/45/25 19/46/32 2/36/27
f 2/36/27 19/46/32 17/47/31
f 6/48/6 18/49/33 15/45/25
f 15/45/25 18/49/33 19/46/32
f 18/49/33 9/24/20 19/46/32
f 19/46/32 9/24/20 14/30/23
f 19/46/32 14/30/23 17/47/31
f 17/47/31 14/30/23 7/32/10
f 12/50/4 20/51/34 6/48/6
f 6/48/6 20/51/34 18/49/33
f 1/40/2 16/52/29 12/50/4
f 12/50/4 16/52/29 20/51/34
f 16/52/29 10/21/13 20/51/34
f 20/51/34 10/21/13 8/22/19
f 20/51/34 8/22/19 18/49/33
f 18/49/33 8/22/19 9/24/20
