# This file uses centimeters as units for non-parametric coordinates.

v 0.207633 -0.271270 0.237803
v 0.207882 -0.396919 -0.236453
v -0.163731 -0.403947 0.307501
v -0.205724 -0.487206 -0.118294
v 0.282580 0.105430 0.306667
v 0.239324 -0.071586 -0.367125
v -0.254475 -0.204040 -0.186495
v -0.225269 -0.102772 0.362180
v -0.314628 -0.185296 0.105854
v -0.252331 -0.460815 0.110003
v 0.288008 -0.304033 -0.024401
v -0.158810 -0.185686 -0.298919
v -0.125306 -0.480722 -0.204837
v 0.379691 0.168647 -0.117342
v 0.322101 0.276650 0.346108
v 0.342429 0.086108 0.108556
v -0.283572 0.003677 0.418096
v -0.127985 -0.043742 0.435007
v -0.363175 -0.110775 0.120996
v -0.289451 -0.152607 0.245986
v -0.284246 -0.127720 -0.217297
v -0.180854 -0.099013 -0.341312
v 0.263087 -0.274024 0.114875
v -0.074815 -0.366526 0.357076
v -0.222842 -0.436495 0.218435
v 0.348224 0.044713 -0.092100
v -0.301630 -0.201277 -0.043371
v -0.247841 -0.479179 -0.007247
v 0.273047 -0.349393 -0.144753
v 0.324107 -0.008570 -0.255709
v 0.273174 0.029498 -0.454202
v 0.110369 -0.122147 -0.390763
v 0.100004 -0.434298 -0.270123
v 0.122665 -0.289626 0.323202
v 0.144912 0.074662 0.420408
v 0.384295 0.233948 0.102935
v -0.170459 0.075070 0.500355
v -0.345066 -0.067698 0.281321
v -0.341210 -0.128328 -0.047565
v 0.362354 0.099872 -0.306731
v 0.116238 -0.025947 -0.463368
v 0.141285 0.227175 0.483172
v 0.332736 0.127748 -0.568218
v 0.116209 0.025947 -0.555869
v -0.188427 -0.045835 -0.422745
v -0.330771 -0.079107 -0.274559
v -0.400868 -0.076086 -0.051371
v -0.429295 -0.055578 0.138744
v -0.420193 0.001976 0.318361
v -0.369172 0.117710 0.495698
v -0.214698 0.194182 0.568218
v 0.130075 0.366050 0.531373
v 0.357648 0.487206 0.331724
v 0.427748 0.401846 0.023251
v 0.429295 0.320682 -0.207248
v 0.416541 0.240163 -0.397839
vt 1.000000 0.290270
vt 1.000000 0.560406
vt 0.703068 0.290270
vt 0.703068 0.560406
vt 0.429602 0.290270
vt 0.429602 0.560406
vt 0.839355 0.290270
vt 1.000000 0.290270
vt 0.839355 0.560406
vt 1.000000 0.560406
vt 0.296932 0.290270
vt 0.570398 0.290270
vt 0.296932 0.560406
vt 0.570398 0.560406
vt 0.000000 0.290270
vt 0.000000 0.560406
vt 0.160645 0.290270
vt 0.160645 0.560406
vt 0.000000 0.290270
vt 0.000000 0.560406
vt 1.000000 1.000000
vt 0.703068 1.000000
vt 0.429602 1.000000
vt 0.160645 1.000000
vt 0.000000 1.000000
vt 0.296932 1.000000
vt 0.570398 1.000000
vt 0.000000 1.000000
vt 0.839355 1.000000
vt 1.000000 1.000000
vt 0.796932 0.290270
vt 0.796932 0.560406
vt 1.000000 0.560406
vt 1.000000 0.290270
vt 0.796932 1.000000
vt 1.000000 1.000000
vt 0.203068 0.560406
vt 0.203068 1.000000
vt 0.000000 0.560406
vt 0.000000 1.000000
vt 0.203068 0.290270
vt 0.000000 0.290270
vt 0.660645 0.560406
vt 0.660645 0.290270
vt 1.000000 0.560406
vt 1.000000 0.290270
vt 0.660645 1.000000
vt 1.000000 1.000000
vt 0.339355 0.560406
vt 0.339355 1.000000
vt 0.000000 0.560406
vt 0.000000 1.000000
vt 0.339355 0.290270
vt 0.000000 0.290270
vt 0.660645 0.032798
vt 1.000000 0.032798
vt 0.160645 0.032798
vt 0.000000 0.032798
vt 0.796932 0.032798
vt 1.000000 0.032798
vt 0.591213 0.032798
vt 0.296932 0.032798
vt 0.000000 0.032798
vt 0.839355 0.032798
vt 1.000000 0.032798
vt 0.339355 0.032798
vt 0.000000 0.032798
vt 0.703068 0.032798
vt 1.000000 0.032798
vt 0.408787 0.032798
vt 0.203068 0.032798
vt 0.000000 0.032798
vn 0.824471 -0.186865 0.534163
vn 0.816879 -0.271194 0.509079
vn 0.960204 -0.206531 0.188025
vn 0.952050 -0.235127 0.195747
vn 0.964599 -0.259202 0.048617
vn 0.977136 -0.211584 0.020938
vn 0.102412 -0.464816 0.879464
vn -0.333287 -0.645143 0.687539
vn 0.046907 -0.332723 0.941857
vn -0.556581 -0.382657 0.737422
vn -0.576251 -0.696036 0.428333
vn -0.721364 -0.682700 0.116422
vn -0.834814 -0.356982 0.419105
vn -0.945009 -0.313242 0.094005
vn -0.245672 -0.689302 -0.681548
vn -0.368172 -0.371364 -0.852373
vn -0.632892 -0.675634 -0.378110
vn -0.813667 -0.319484 -0.485671
vn 0.819916 -0.226646 0.525708
vn 0.947276 -0.176348 0.267526
vn 0.986265 -0.153070 0.062050
vn -0.412000 -0.316206 -0.854559
vn -0.835514 -0.254904 -0.486765
vn -0.882104 -0.230023 0.411074
vn -0.971873 -0.206207 0.113758
vn -0.640310 -0.250884 0.725989
vn -0.018758 -0.226634 0.973799
vn -0.763266 -0.631066 -0.138497
vn -0.941662 -0.285377 -0.178419
vn -0.962162 -0.208962 -0.174870
vn 0.927959 -0.291196 -0.232589
vn 0.931406 -0.228067 -0.283669
vn 0.643506 -0.434188 -0.630382
vn 0.613855 -0.331025 -0.716662
vn 0.913375 -0.389829 -0.117383
vn 0.633419 -0.672974 -0.381951
vn -0.010672 -0.443438 -0.896242
vn 0.071552 -0.772903 -0.630478
vn -0.065590 -0.347020 -0.935561
vn 0.401847 -0.302230 0.864394
vn 0.372205 -0.234875 0.897941
vn 0.405449 -0.311594 0.859372
vn 0.177092 -0.850887 -0.494602
vn 0.707081 -0.674621 -0.211953
vn -0.076680 -0.843051 -0.532340
vn -0.450860 -0.823033 -0.345460
vn -0.642560 -0.759670 -0.100094
vn -0.607124 -0.777476 0.164111
vn -0.464391 -0.740775 0.485380
vn -0.247055 -0.637965 0.729359
vn 0.139939 -0.431271 0.891304
vn 0.476923 -0.216038 0.851981
vn 0.868989 -0.109440 0.482577
vn 0.968895 -0.181937 0.167753
vn 0.956698 -0.282483 0.070231
vn 0.903760 -0.425877 -0.042971
f 15/1/1 5/2/2 36/3/3
f 36/3/3 5/2/2 16/4/4
f 36/3/3 16/4/4 14/5/5
f 14/5/5 16/4/4 26/6/6
f 37/7/7 17/8/8 18/9/9
f 18/9/9 17/8/8 8/10/10
f 38/11/11 19/12/12 20/13/13
f 20/13/13 19/12/12 9/14/14
f 17/15/8 38/11/11 8/16/10
f 8/16/10 38/11/11 20/13/13
f 22/17/15 12/18/16 21/19/17
f 21/19/17 12/18/16 7/20/18
f 5/2/2 1/21/19 16/4/4
f 16/4/4 1/21/19 23/22/20
f 16/4/4 23/22/20 26/6/6
f 26/6/6 23/22/20 11/23/21
f 12/18/16 13/24/22 7/20/18
f 7/20/18 13/24/22 4/25/23
f 20/13/13 9/14/14 25/26/24
f 25/26/24 9/14/14 10/27/25
f 8/16/10 20/13/13 3/28/26
f 3/28/26 20/13/13 25/26/24
f 18/9/9 8/10/10 24/29/27
f 24/29/27 8/10/10 3/30/26
f 19/12/12 39/31/28 9/14/14
f 9/14/14 39/31/28 27/32/29
f 27/32/29 39/31/28 7/33/18
f 7/33/18 39/31/28 21/34/17
f 9/14/14 27/32/29 10/27/25
f 10/27/25 27/32/29 28/35/30
f 28/35/30 27/32/29 4/36/23
f 4/36/23 27/32/29 7/33/18
f 26/6/6 11/23/21 30/37/31
f 30/37/31 11/23/21 29/38/32
f 30/37/31 29/38/32 6/39/33
f 6/39/33 29/38/32 2/40/34
f 14/5/5 26/6/6 40/41/35
f 40/41/35 26/6/6 30/37/31
f 40/41/35 30/37/31 31/42/36
f 31/42/36 30/37/31 6/39/33
f 12/18/16 22/17/15 32/43/37
f 32/43/37 22/17/15 41/44/38
f 32/43/37 41/44/38 6/45/33
f 6/45/33 41/44/38 31/46/36
f 13/24/22 12/18/16 33/47/39
f 33/47/39 12/18/16 32/43/37
f 33/47/39 32/43/37 2/48/34
f 2/48/34 32/43/37 6/45/33
f 35/49/40 18/9/9 34/50/41
f 34/50/41 18/9/9 24/29/27
f 5/51/2 35/49/40 1/52/19
f 1/52/19 35/49/40 34/50/41
f 42/53/42 37/7/7 35/49/40
f 35/49/40 37/7/7 18/9/9
f 15/54/1 42/53/42 5/51/2
f 5/51/2 42/53/42 35/49/40
f 41/44/38 44/55/43 31/46/36
f 31/46/36 44/55/43 43/56/44
f 22/17/15 45/57/45 41/44/38
f 41/44/38 45/57/45 44/55/43
f 45/57/45 22/17/15 46/58/46
f 46/58/46 22/17/15 21/19/17
f 39/31/28 47/59/47 21/34/17
f 21/34/17 47/59/47 46/60/46
f 48/61/48 47/59/47 19/12/12
f 19/12/12 47/59/47 39/31/28
f 49/62/49 48/61/48 38/11/11
f 38/11/11 48/61/48 19/12/12
f 50/63/50 49/62/49 17/15/8
f 17/15/8 49/62/49 38/11/11
f 51/64/51 50/65/50 37/7/7
f 37/7/7 50/65/50 17/8/8
f 52/66/52 51/64/51 42/53/42
f 42/53/42 51/64/51 37/7/7
f 53/67/53 52/66/52 15/54/1
f 15/54/1 52/66/52 42/53/42
f 54/68/54 53/69/53 36/3/3
f 36/3/3 53/69/53 15/1/1
f 55/70/55 54/68/54 14/5/5
f 14/5/5 54/68/54 36/3/3
f 56/71/56 55/70/55 40/41/35
f 40/41/35 55/70/55 14/5/5
f 43/72/44 56/71/56 31/42/36
f 31/42/36 56/71/56 40/41/35
